<?xml version="1.0" encoding="UTF-8" standalone="no"?>
<!DOCTYPE svg PUBLIC "-//W3C//DTD SVG 1.1//EN"
 "http://www.w3.org/Graphics/SVG/1.1/DTD/svg11.dtd">
<!-- Generated by graphviz version 14.1.3 (20260303.0454)
 -->
<!-- Title: D05 Pages: 1 -->
<svg width="632pt" height="981pt"
 viewBox="0.00 0.00 632.00 981.00" xmlns="http://www.w3.org/2000/svg" xmlns:xlink="http://www.w3.org/1999/xlink">
<g id="graph0" class="graph" transform="scale(1 1) rotate(0) translate(21.6 959.28)">
<title>D05</title>
<polygon fill="#f8fafc" stroke="none" points="-21.6,21.6 -21.6,-959.28 610.79,-959.28 610.79,21.6 -21.6,21.6"/>
<text xml:space="preserve" text-anchor="middle" x="294.6" y="-918.38" font-family="DejaVu Sans" font-size="17.00">D05 &#160;| &#160;User interaction and reconnection</text>
<!-- form -->
<g id="node1" class="node">
<title>form</title>
<path fill="#ffffff" stroke="#94a8c2" stroke-width="1.15" d="M243.4,-909.28C243.4,-909.28 127,-909.28 127,-909.28 121,-909.28 115,-903.28 115,-897.28 115,-897.28 115,-885.28 115,-885.28 115,-879.28 121,-873.28 127,-873.28 127,-873.28 243.4,-873.28 243.4,-873.28 249.4,-873.28 255.4,-879.28 255.4,-885.28 255.4,-885.28 255.4,-897.28 255.4,-897.28 255.4,-903.28 249.4,-909.28 243.4,-909.28"/>
<text xml:space="preserve" text-anchor="middle" x="185.2" y="-887.53" font-family="DejaVu Sans" font-size="12.50" fill="#17304b">Task input</text>
</g>
<!-- draft -->
<g id="node2" class="node">
<title>draft</title>
<path fill="#ffffff" stroke="#94a8c2" stroke-width="1.15" d="M249.89,-834.28C249.89,-834.28 120.51,-834.28 120.51,-834.28 114.51,-834.28 108.51,-828.28 108.51,-822.28 108.51,-822.28 108.51,-810.28 108.51,-810.28 108.51,-804.28 114.51,-798.28 120.51,-798.28 120.51,-798.28 249.89,-798.28 249.89,-798.28 255.89,-798.28 261.89,-804.28 261.89,-810.28 261.89,-810.28 261.89,-822.28 261.89,-822.28 261.89,-828.28 255.89,-834.28 249.89,-834.28"/>
<text xml:space="preserve" text-anchor="middle" x="185.2" y="-812.53" font-family="DejaVu Sans" font-size="12.50" fill="#17304b">Scope or clarification</text>
</g>
<!-- form&#45;&gt;draft -->
<g id="edge1" class="edge">
<title>form&#45;&gt;draft</title>
<path fill="none" stroke="#687e99" stroke-width="1.05" d="M185.2,-872.98C185.2,-864.04 185.2,-852.96 185.2,-843.04"/>
<polygon fill="#687e99" stroke="#687e99" stroke-width="1.05" points="187.65,-843.3 185.2,-836.3 182.75,-843.3 187.65,-843.3"/>
</g>
<!-- edit -->
<g id="node3" class="node">
<title>edit</title>
<path fill="#ffffff" stroke="#94a8c2" stroke-width="1.15" d="M128.4,-748.28C128.4,-748.28 12,-748.28 12,-748.28 6,-748.28 0,-742.28 0,-736.28 0,-736.28 0,-724.28 0,-724.28 0,-718.28 6,-712.28 12,-712.28 12,-712.28 128.4,-712.28 128.4,-712.28 134.4,-712.28 140.4,-718.28 140.4,-724.28 140.4,-724.28 140.4,-736.28 140.4,-736.28 140.4,-742.28 134.4,-748.28 128.4,-748.28"/>
<text xml:space="preserve" text-anchor="middle" x="70.2" y="-726.53" font-family="DejaVu Sans" font-size="12.50" fill="#17304b">Edit scope</text>
</g>
<!-- draft&#45;&gt;edit -->
<g id="edge2" class="edge">
<title>draft&#45;&gt;edit</title>
<path fill="none" stroke="#687e99" stroke-width="1.05" d="M131.91,-797.81C103.93,-788.63 75.4,-779.28 75.4,-779.28 75.4,-779.28 74.21,-768.32 72.97,-756.88"/>
<polygon fill="#687e99" stroke="#687e99" stroke-width="1.05" points="75.44,-756.88 72.25,-750.19 70.57,-757.41 75.44,-756.88"/>
<text xml:space="preserve" text-anchor="middle" x="93.8" y="-770.28" font-family="DejaVu Sans" font-size="10.00" fill="#485f7a">change</text>
</g>
<!-- approve -->
<g id="node4" class="node">
<title>approve</title>
<path fill="#ffffff" stroke="#94a8c2" stroke-width="1.15" d="M304.71,-748.28C304.71,-748.28 175.69,-748.28 175.69,-748.28 169.69,-748.28 163.69,-742.28 163.69,-736.28 163.69,-736.28 163.69,-724.28 163.69,-724.28 163.69,-718.28 169.69,-712.28 175.69,-712.28 175.69,-712.28 304.71,-712.28 304.71,-712.28 310.71,-712.28 316.71,-718.28 316.71,-724.28 316.71,-724.28 316.71,-736.28 316.71,-736.28 316.71,-742.28 310.71,-748.28 304.71,-748.28"/>
<text xml:space="preserve" text-anchor="middle" x="240.2" y="-726.53" font-family="DejaVu Sans" font-size="12.50" fill="#17304b">Approve exact scope</text>
</g>
<!-- draft&#45;&gt;approve -->
<g id="edge4" class="edge">
<title>draft&#45;&gt;approve</title>
<path fill="none" stroke="#687e99" stroke-width="1.05" d="M196.6,-797.88C204.56,-785.71 215.31,-769.3 224.14,-755.81"/>
<polygon fill="#687e99" stroke="#687e99" stroke-width="1.05" points="226.16,-757.19 227.95,-749.99 222.06,-754.51 226.16,-757.19"/>
<text xml:space="preserve" text-anchor="middle" x="239.35" y="-770.28" font-family="DejaVu Sans" font-size="10.00" fill="#485f7a">complete</text>
</g>
<!-- edit&#45;&gt;draft -->
<g id="edge3" class="edge">
<title>edit&#45;&gt;draft</title>
<path fill="none" stroke="#687e99" stroke-width="1.05" d="M94,-748.66C111.57,-761.5 135.63,-779.07 154.62,-792.95"/>
<polygon fill="#687e99" stroke="#687e99" stroke-width="1.05" points="152.99,-794.79 160.09,-796.94 155.88,-790.83 152.99,-794.79"/>
<text xml:space="preserve" text-anchor="middle" x="166.21" y="-770.28" font-family="DejaVu Sans" font-size="10.00" fill="#485f7a">new revision</text>
</g>
<!-- ack -->
<g id="node5" class="node">
<title>ack</title>
<polygon fill="#edf3ff" stroke="#7399d7" stroke-width="1.15" points="301.2,-673.28 139.17,-655.28 301.2,-637.28 463.23,-655.28 301.2,-673.28"/>
<text xml:space="preserve" text-anchor="middle" x="301.2" y="-651.53" font-family="DejaVu Sans" font-size="12.50" fill="#17304b">Acknowledgement known?</text>
</g>
<!-- approve&#45;&gt;ack -->
<g id="edge5" class="edge">
<title>approve&#45;&gt;ack</title>
<path fill="none" stroke="#687e99" stroke-width="1.05" d="M254.66,-711.98C263.06,-701.92 273.73,-689.15 282.74,-678.37"/>
<polygon fill="#687e99" stroke="#687e99" stroke-width="1.05" points="284.47,-680.12 287.08,-673.18 280.71,-676.98 284.47,-680.12"/>
</g>
<!-- ack&#45;&gt;draft -->
<g id="edge10" class="edge">
<title>ack&#45;&gt;draft</title>
<path fill="none" stroke="#687e99" stroke-width="1.05" d="M309.15,-672.78C317.12,-689.3 328.2,-712.28 328.2,-712.28 328.2,-712.28 328.2,-748.28 328.2,-748.28 328.2,-748.28 268.2,-779.28 268.2,-779.28 268.2,-779.28 251.26,-786.63 232.69,-794.68"/>
<polygon fill="#687e99" stroke="#687e99" stroke-width="1.05" points="232.15,-792.25 226.7,-797.28 234.1,-796.74 232.15,-792.25"/>
<text xml:space="preserve" text-anchor="middle" x="363.16" y="-727.28" font-family="DejaVu Sans" font-size="10.00" fill="#485f7a">rejected / 409</text>
</g>
<!-- unknown -->
<g id="node6" class="node">
<title>unknown</title>
<path fill="#fff4df" stroke="#bd9651" stroke-width="1.15" d="M254.04,-532.28C254.04,-532.28 124.36,-532.28 124.36,-532.28 118.36,-532.28 112.36,-526.28 112.36,-520.28 112.36,-520.28 112.36,-508.28 112.36,-508.28 112.36,-502.28 118.36,-496.28 124.36,-496.28 124.36,-496.28 254.04,-496.28 254.04,-496.28 260.04,-496.28 266.04,-502.28 266.04,-508.28 266.04,-508.28 266.04,-520.28 266.04,-520.28 266.04,-526.28 260.04,-532.28 254.04,-532.28"/>
<text xml:space="preserve" text-anchor="middle" x="189.2" y="-510.53" font-family="DejaVu Sans" font-size="12.50" fill="#17304b">ACK_UNKNOWN view</text>
</g>
<!-- ack&#45;&gt;unknown -->
<g id="edge6" class="edge">
<title>ack&#45;&gt;unknown</title>
<path fill="none" stroke="#687e99" stroke-width="1.05" d="M274.8,-639.64C256.84,-629.67 236.3,-618.28 236.3,-618.28 236.3,-618.28 214.67,-570.97 200.72,-540.48"/>
<polygon fill="#687e99" stroke="#687e99" stroke-width="1.05" points="202.99,-539.54 197.85,-534.2 198.53,-541.58 202.99,-539.54"/>
<text xml:space="preserve" text-anchor="middle" x="287.75" y="-609.28" font-family="DejaVu Sans" font-size="10.00" fill="#485f7a">timeout / disconnect</text>
</g>
<!-- running -->
<g id="node8" class="node">
<title>running</title>
<path fill="#ffffff" stroke="#94a8c2" stroke-width="1.15" d="M456.34,-587.28C456.34,-587.28 336.06,-587.28 336.06,-587.28 330.06,-587.28 324.06,-581.28 324.06,-575.28 324.06,-575.28 324.06,-563.28 324.06,-563.28 324.06,-557.28 330.06,-551.28 336.06,-551.28 336.06,-551.28 456.34,-551.28 456.34,-551.28 462.34,-551.28 468.34,-557.28 468.34,-563.28 468.34,-563.28 468.34,-575.28 468.34,-575.28 468.34,-581.28 462.34,-587.28 456.34,-587.28"/>
<text xml:space="preserve" text-anchor="middle" x="396.2" y="-565.53" font-family="DejaVu Sans" font-size="12.50" fill="#17304b">Running workspace</text>
</g>
<!-- ack&#45;&gt;running -->
<g id="edge9" class="edge">
<title>ack&#45;&gt;running</title>
<path fill="none" stroke="#687e99" stroke-width="1.05" d="M319.69,-638.8C331.34,-629.05 344.2,-618.28 344.2,-618.28 344.2,-618.28 357.99,-605.55 371.36,-593.21"/>
<polygon fill="#687e99" stroke="#687e99" stroke-width="1.05" points="372.78,-595.24 376.26,-588.69 369.45,-591.63 372.78,-595.24"/>
<text xml:space="preserve" text-anchor="middle" x="379.79" y="-609.28" font-family="DejaVu Sans" font-size="10.00" fill="#485f7a">accepted</text>
</g>
<!-- reconcile -->
<g id="node7" class="node">
<title>reconcile</title>
<path fill="#ffffff" stroke="#94a8c2" stroke-width="1.15" d="M408.91,-391.28C408.91,-391.28 277.49,-391.28 277.49,-391.28 271.49,-391.28 265.49,-385.28 265.49,-379.28 265.49,-379.28 265.49,-356 265.49,-356 265.49,-350 271.49,-344 277.49,-344 277.49,-344 408.91,-344 408.91,-344 414.91,-344 420.91,-350 420.91,-356 420.91,-356 420.91,-379.28 420.91,-379.28 420.91,-385.28 414.91,-391.28 408.91,-391.28"/>
<text xml:space="preserve" text-anchor="middle" x="343.2" y="-371.39" font-family="DejaVu Sans" font-size="12.50" fill="#17304b">Query task + resume</text>
<text xml:space="preserve" text-anchor="middle" x="343.2" y="-356.39" font-family="DejaVu Sans" font-size="12.50" fill="#17304b">events</text>
</g>
<!-- unknown&#45;&gt;reconcile -->
<g id="edge7" class="edge">
<title>unknown&#45;&gt;reconcile</title>
<path fill="none" stroke="#687e99" stroke-width="1.05" d="M182.79,-496.12C179.32,-486.85 175.74,-477.28 175.74,-477.28 175.74,-477.28 175.74,-441.28 175.74,-441.28 175.74,-441.28 234.07,-415.98 281.88,-395.24"/>
<polygon fill="#687e99" stroke="#687e99" stroke-width="1.05" points="282.85,-397.49 288.3,-392.46 280.9,-392.99 282.85,-397.49"/>
<text xml:space="preserve" text-anchor="middle" x="230.47" y="-456.28" font-family="DejaVu Sans" font-size="10.00" fill="#485f7a">same task / same key</text>
</g>
<!-- reconcile&#45;&gt;running -->
<g id="edge8" class="edge">
<title>reconcile&#45;&gt;running</title>
<path fill="none" stroke="#687e99" stroke-width="1.05" d="M337.32,-391.62C331.87,-412.9 324.61,-441.28 324.61,-441.28 324.61,-441.28 324.61,-477.28 324.61,-477.28 324.61,-477.28 356.04,-517.23 377.25,-544.19"/>
<polygon fill="#687e99" stroke="#687e99" stroke-width="1.05" points="375.16,-545.5 381.41,-549.49 379.01,-542.47 375.16,-545.5"/>
<text xml:space="preserve" text-anchor="middle" x="343.91" y="-456.28" font-family="DejaVu Sans" font-size="10.00" fill="#485f7a">running</text>
</g>
<!-- terminal -->
<g id="node10" class="node">
<title>terminal</title>
<path fill="#ffffff" stroke="#94a8c2" stroke-width="1.15" d="M549.4,-294C549.4,-294 433,-294 433,-294 427,-294 421,-288 421,-282 421,-282 421,-270 421,-270 421,-264 427,-258 433,-258 433,-258 549.4,-258 549.4,-258 555.4,-258 561.4,-264 561.4,-270 561.4,-270 561.4,-282 561.4,-282 561.4,-288 555.4,-294 549.4,-294"/>
<text xml:space="preserve" text-anchor="middle" x="491.2" y="-272.25" font-family="DejaVu Sans" font-size="12.50" fill="#17304b">Terminal evidence</text>
</g>
<!-- reconcile&#45;&gt;terminal -->
<g id="edge14" class="edge">
<title>reconcile&#45;&gt;terminal</title>
<path fill="none" stroke="#687e99" stroke-width="1.05" d="M381.31,-343.56C404.09,-329.76 432.85,-312.34 455.24,-298.78"/>
<polygon fill="#687e99" stroke="#687e99" stroke-width="1.05" points="456.49,-300.89 461.21,-295.17 453.95,-296.7 456.49,-300.89"/>
<text xml:space="preserve" text-anchor="middle" x="451.43" y="-316" font-family="DejaVu Sans" font-size="10.00" fill="#485f7a">terminal</text>
</g>
<!-- stop -->
<g id="node9" class="node">
<title>stop</title>
<path fill="#ffffff" stroke="#94a8c2" stroke-width="1.15" d="M503.4,-477.28C503.4,-477.28 387,-477.28 387,-477.28 381,-477.28 375,-471.28 375,-465.28 375,-465.28 375,-453.28 375,-453.28 375,-447.28 381,-441.28 387,-441.28 387,-441.28 503.4,-441.28 503.4,-441.28 509.4,-441.28 515.4,-447.28 515.4,-453.28 515.4,-453.28 515.4,-465.28 515.4,-465.28 515.4,-471.28 509.4,-477.28 503.4,-477.28"/>
<text xml:space="preserve" text-anchor="middle" x="445.2" y="-455.53" font-family="DejaVu Sans" font-size="12.50" fill="#17304b">Request stop</text>
</g>
<!-- running&#45;&gt;stop -->
<g id="edge11" class="edge">
<title>running&#45;&gt;stop</title>
<path fill="none" stroke="#687e99" stroke-width="1.05" d="M404.07,-550.93C412.15,-533.14 424.78,-505.29 433.91,-485.16"/>
<polygon fill="#687e99" stroke="#687e99" stroke-width="1.05" points="436.03,-486.42 436.69,-479.04 431.57,-484.4 436.03,-486.42"/>
<text xml:space="preserve" text-anchor="middle" x="453.85" y="-511.28" font-family="DejaVu Sans" font-size="10.00" fill="#485f7a">user stops</text>
</g>
<!-- running&#45;&gt;terminal -->
<g id="edge13" class="edge">
<title>running&#45;&gt;terminal</title>
<path fill="none" stroke="#687e99" stroke-width="1.05" d="M439.4,-550.81C462.07,-541.63 485.2,-532.28 485.2,-532.28 485.2,-532.28 527.2,-477.28 527.2,-477.28 527.2,-477.28 527.2,-441.28 527.2,-441.28 527.2,-441.28 506.93,-348.76 496.81,-302.58"/>
<polygon fill="#687e99" stroke="#687e99" stroke-width="1.05" points="499.22,-302.14 495.32,-295.82 494.43,-303.18 499.22,-302.14"/>
<text xml:space="preserve" text-anchor="middle" x="549.44" y="-413.28" font-family="DejaVu Sans" font-size="10.00" fill="#485f7a">completed</text>
</g>
<!-- stop&#45;&gt;reconcile -->
<g id="edge12" class="edge">
<title>stop&#45;&gt;reconcile</title>
<path fill="none" stroke="#687e99" stroke-width="1.05" d="M425.53,-441C411.43,-428.6 392.1,-411.62 375.72,-397.22"/>
<polygon fill="#687e99" stroke="#687e99" stroke-width="1.05" points="377.44,-395.47 370.56,-392.69 374.2,-399.15 377.44,-395.47"/>
<text xml:space="preserve" text-anchor="middle" x="448.22" y="-413.28" font-family="DejaVu Sans" font-size="10.00" fill="#485f7a">await server truth</text>
</g>
<!-- preview -->
<g id="node11" class="node">
<title>preview</title>
<path fill="#ffffff" stroke="#94a8c2" stroke-width="1.15" d="M550.84,-208C550.84,-208 431.56,-208 431.56,-208 425.56,-208 419.56,-202 419.56,-196 419.56,-196 419.56,-184 419.56,-184 419.56,-178 425.56,-172 431.56,-172 431.56,-172 550.84,-172 550.84,-172 556.84,-172 562.84,-178 562.84,-184 562.84,-184 562.84,-196 562.84,-196 562.84,-202 556.84,-208 550.84,-208"/>
<text xml:space="preserve" text-anchor="middle" x="491.2" y="-186.25" font-family="DejaVu Sans" font-size="12.50" fill="#17304b">Public field preview</text>
</g>
<!-- terminal&#45;&gt;preview -->
<g id="edge15" class="edge">
<title>terminal&#45;&gt;preview</title>
<path fill="none" stroke="#687e99" stroke-width="1.05" d="M491.2,-257.6C491.2,-245.77 491.2,-229.93 491.2,-216.66"/>
<polygon fill="#687e99" stroke="#687e99" stroke-width="1.05" points="493.65,-216.97 491.2,-209.97 488.75,-216.97 493.65,-216.97"/>
<text xml:space="preserve" text-anchor="middle" x="525.6" y="-230" font-family="DejaVu Sans" font-size="10.00" fill="#485f7a">explicit intent</text>
</g>
<!-- publish -->
<g id="node12" class="node">
<title>publish</title>
<path fill="#ffffff" stroke="#94a8c2" stroke-width="1.15" d="M549.4,-122C549.4,-122 433,-122 433,-122 427,-122 421,-116 421,-110 421,-110 421,-98 421,-98 421,-92 427,-86 433,-86 433,-86 549.4,-86 549.4,-86 555.4,-86 561.4,-92 561.4,-98 561.4,-98 561.4,-110 561.4,-110 561.4,-116 555.4,-122 549.4,-122"/>
<text xml:space="preserve" text-anchor="middle" x="491.2" y="-100.25" font-family="DejaVu Sans" font-size="12.50" fill="#17304b">Publication panel</text>
</g>
<!-- preview&#45;&gt;publish -->
<g id="edge16" class="edge">
<title>preview&#45;&gt;publish</title>
<path fill="none" stroke="#687e99" stroke-width="1.05" d="M491.2,-171.6C491.2,-159.77 491.2,-143.93 491.2,-130.66"/>
<polygon fill="#687e99" stroke="#687e99" stroke-width="1.05" points="493.65,-130.97 491.2,-123.97 488.75,-130.97 493.65,-130.97"/>
<text xml:space="preserve" text-anchor="middle" x="540.2" y="-144" font-family="DejaVu Sans" font-size="10.00" fill="#485f7a">exact&#45;hash consent</text>
</g>
<!-- read -->
<g id="node13" class="node">
<title>read</title>
<path fill="#ffffff" stroke="#94a8c2" stroke-width="1.15" d="M549.4,-36C549.4,-36 433,-36 433,-36 427,-36 421,-30 421,-24 421,-24 421,-12 421,-12 421,-6 427,0 433,0 433,0 549.4,0 549.4,0 555.4,0 561.4,-6 561.4,-12 561.4,-12 561.4,-24 561.4,-24 561.4,-30 555.4,-36 549.4,-36"/>
<text xml:space="preserve" text-anchor="middle" x="491.2" y="-14.25" font-family="DejaVu Sans" font-size="12.50" fill="#17304b">Public verification</text>
</g>
<!-- publish&#45;&gt;read -->
<g id="edge17" class="edge">
<title>publish&#45;&gt;read</title>
<path fill="none" stroke="#687e99" stroke-width="1.05" d="M491.2,-85.6C491.2,-73.77 491.2,-57.93 491.2,-44.66"/>
<polygon fill="#687e99" stroke="#687e99" stroke-width="1.05" points="493.65,-44.97 491.2,-37.97 488.75,-44.97 493.65,-44.97"/>
<text xml:space="preserve" text-anchor="middle" x="531.53" y="-58" font-family="DejaVu Sans" font-size="10.00" fill="#485f7a">record available</text>
</g>
</g>
</svg>
