<?xml version="1.0" encoding="UTF-8" standalone="no"?>
<!DOCTYPE svg PUBLIC "-//W3C//DTD SVG 1.1//EN"
 "http://www.w3.org/Graphics/SVG/1.1/DTD/svg11.dtd">
<!-- Generated by graphviz version 14.1.3 (20260303.0454)
 -->
<!-- Title: D06 Pages: 1 -->
<svg width="481pt" height="688pt"
 viewBox="0.00 0.00 481.00 688.00" xmlns="http://www.w3.org/2000/svg" xmlns:xlink="http://www.w3.org/1999/xlink">
<g id="graph0" class="graph" transform="scale(1 1) rotate(0) translate(21.6 666.28)">
<title>D06</title>
<polygon fill="#f8fafc" stroke="none" points="-21.6,21.6 -21.6,-666.28 459.03,-666.28 459.03,21.6 -21.6,21.6"/>
<text xml:space="preserve" text-anchor="middle" x="218.72" y="-625.38" font-family="DejaVu Sans" font-size="17.00">D06 &#160;| &#160;Stop and result race</text>
<!-- request -->
<g id="node1" class="node">
<title>request</title>
<path fill="#ffffff" stroke="#94a8c2" stroke-width="1.15" d="M198.3,-616.28C198.3,-616.28 81.9,-616.28 81.9,-616.28 75.9,-616.28 69.9,-610.28 69.9,-604.28 69.9,-604.28 69.9,-592.28 69.9,-592.28 69.9,-586.28 75.9,-580.28 81.9,-580.28 81.9,-580.28 198.3,-580.28 198.3,-580.28 204.3,-580.28 210.3,-586.28 210.3,-592.28 210.3,-592.28 210.3,-604.28 210.3,-604.28 210.3,-610.28 204.3,-616.28 198.3,-616.28"/>
<text xml:space="preserve" text-anchor="middle" x="140.1" y="-594.53" font-family="DejaVu Sans" font-size="12.50" fill="#17304b">Stop arrives</text>
</g>
<!-- state -->
<g id="node2" class="node">
<title>state</title>
<polygon fill="#edf3ff" stroke="#7399d7" stroke-width="1.15" points="140.1,-541.28 0,-523.28 140.1,-505.28 280.21,-523.28 140.1,-541.28"/>
<text xml:space="preserve" text-anchor="middle" x="140.1" y="-519.53" font-family="DejaVu Sans" font-size="12.50" fill="#17304b">Task already terminal?</text>
</g>
<!-- request&#45;&gt;state -->
<g id="edge1" class="edge">
<title>request&#45;&gt;state</title>
<path fill="none" stroke="#687e99" stroke-width="1.05" d="M140.1,-579.98C140.1,-571.04 140.1,-559.96 140.1,-550.04"/>
<polygon fill="#687e99" stroke="#687e99" stroke-width="1.05" points="142.55,-550.3 140.1,-543.3 137.65,-550.3 142.55,-550.3"/>
</g>
<!-- terminal -->
<g id="node3" class="node">
<title>terminal</title>
<path fill="#e9f6ee" stroke="#559b75" stroke-width="1.15" d="M180.14,-449.64C180.14,-449.64 56.06,-449.64 56.06,-449.64 50.06,-449.64 44.06,-443.64 44.06,-437.64 44.06,-437.64 44.06,-425.64 44.06,-425.64 44.06,-419.64 50.06,-413.64 56.06,-413.64 56.06,-413.64 180.14,-413.64 180.14,-413.64 186.14,-413.64 192.14,-419.64 192.14,-425.64 192.14,-425.64 192.14,-437.64 192.14,-437.64 192.14,-443.64 186.14,-449.64 180.14,-449.64"/>
<text xml:space="preserve" text-anchor="middle" x="118.1" y="-427.89" font-family="DejaVu Sans" font-size="12.50" fill="#17304b">Return terminal fact</text>
</g>
<!-- state&#45;&gt;terminal -->
<g id="edge2" class="edge">
<title>state&#45;&gt;terminal</title>
<path fill="none" stroke="#687e99" stroke-width="1.05" d="M135.97,-505.42C132.69,-492.07 128.06,-473.21 124.33,-458.03"/>
<polygon fill="#687e99" stroke="#687e99" stroke-width="1.05" points="126.8,-457.79 122.75,-451.58 122.04,-458.96 126.8,-457.79"/>
<text xml:space="preserve" text-anchor="middle" x="139.71" y="-477.28" font-family="DejaVu Sans" font-size="10.00" fill="#485f7a">yes</text>
</g>
<!-- epoch -->
<g id="node4" class="node">
<title>epoch</title>
<path fill="#ffffff" stroke="#94a8c2" stroke-width="1.15" d="M357.3,-455.28C357.3,-455.28 226.91,-455.28 226.91,-455.28 220.91,-455.28 214.91,-449.28 214.91,-443.28 214.91,-443.28 214.91,-420 214.91,-420 214.91,-414 220.91,-408 226.91,-408 226.91,-408 357.3,-408 357.3,-408 363.3,-408 369.3,-414 369.3,-420 369.3,-420 369.3,-443.28 369.3,-443.28 369.3,-449.28 363.3,-455.28 357.3,-455.28"/>
<text xml:space="preserve" text-anchor="middle" x="292.1" y="-435.39" font-family="DejaVu Sans" font-size="12.50" fill="#17304b">Commit stopEpoch +</text>
<text xml:space="preserve" text-anchor="middle" x="292.1" y="-420.39" font-family="DejaVu Sans" font-size="12.50" fill="#17304b">revoke</text>
</g>
<!-- state&#45;&gt;epoch -->
<g id="edge3" class="edge">
<title>state&#45;&gt;epoch</title>
<path fill="none" stroke="#687e99" stroke-width="1.05" d="M164.52,-507.88C186.31,-495.03 218.8,-475.87 245.54,-460.1"/>
<polygon fill="#687e99" stroke="#687e99" stroke-width="1.05" points="246.76,-462.22 251.55,-456.56 244.27,-458 246.76,-462.22"/>
<text xml:space="preserve" text-anchor="middle" x="226.89" y="-477.28" font-family="DejaVu Sans" font-size="10.00" fill="#485f7a">no</text>
</g>
<!-- ack -->
<g id="node5" class="node">
<title>ack</title>
<path fill="#ffffff" stroke="#94a8c2" stroke-width="1.15" d="M233.3,-358C233.3,-358 116.9,-358 116.9,-358 110.9,-358 104.9,-352 104.9,-346 104.9,-346 104.9,-334 104.9,-334 104.9,-328 110.9,-322 116.9,-322 116.9,-322 233.3,-322 233.3,-322 239.3,-322 245.3,-328 245.3,-334 245.3,-334 245.3,-346 245.3,-346 245.3,-352 239.3,-358 233.3,-358"/>
<text xml:space="preserve" text-anchor="middle" x="175.1" y="-336.25" font-family="DejaVu Sans" font-size="12.50" fill="#17304b">ACK stop request</text>
</g>
<!-- epoch&#45;&gt;ack -->
<g id="edge4" class="edge">
<title>epoch&#45;&gt;ack</title>
<path fill="none" stroke="#687e99" stroke-width="1.05" d="M261.97,-407.56C244.28,-394 222.02,-376.94 204.46,-363.49"/>
<polygon fill="#687e99" stroke="#687e99" stroke-width="1.05" points="206.05,-361.62 199,-359.31 203.07,-365.51 206.05,-361.62"/>
<text xml:space="preserve" text-anchor="middle" x="256.21" y="-380" font-family="DejaVu Sans" font-size="10.00" fill="#485f7a">durable</text>
</g>
<!-- dbfail -->
<g id="node10" class="node">
<title>dbfail</title>
<path fill="#fcebed" stroke="#bd6876" stroke-width="1.15" d="M425.43,-358C425.43,-358 280.77,-358 280.77,-358 274.77,-358 268.77,-352 268.77,-346 268.77,-346 268.77,-334 268.77,-334 268.77,-328 274.77,-322 280.77,-322 280.77,-322 425.43,-322 425.43,-322 431.43,-322 437.43,-328 437.43,-334 437.43,-334 437.43,-346 437.43,-346 437.43,-352 431.43,-358 425.43,-358"/>
<text xml:space="preserve" text-anchor="middle" x="353.1" y="-336.25" font-family="DejaVu Sans" font-size="12.50" fill="#17304b">Stop not acknowledged</text>
</g>
<!-- epoch&#45;&gt;dbfail -->
<g id="edge5" class="edge">
<title>epoch&#45;&gt;dbfail</title>
<path fill="none" stroke="#687e99" stroke-width="1.05" d="M307.81,-407.56C316.63,-394.6 327.62,-378.45 336.57,-365.3"/>
<polygon fill="#687e99" stroke="#687e99" stroke-width="1.05" points="338.49,-366.82 340.41,-359.66 334.44,-364.07 338.49,-366.82"/>
<text xml:space="preserve" text-anchor="middle" x="352.43" y="-380" font-family="DejaVu Sans" font-size="10.00" fill="#485f7a">write fails</text>
</g>
<!-- race -->
<g id="node6" class="node">
<title>race</title>
<path fill="#ffffff" stroke="#94a8c2" stroke-width="1.15" d="M189.09,-272C189.09,-272 39.11,-272 39.11,-272 33.11,-272 27.11,-266 27.11,-260 27.11,-260 27.11,-248 27.11,-248 27.11,-242 33.11,-236 39.11,-236 39.11,-236 189.09,-236 189.09,-236 195.09,-236 201.09,-242 201.09,-248 201.09,-248 201.09,-260 201.09,-260 201.09,-266 195.09,-272 189.09,-272"/>
<text xml:space="preserve" text-anchor="middle" x="114.1" y="-250.25" font-family="DejaVu Sans" font-size="12.50" fill="#17304b">Response commit guard</text>
</g>
<!-- ack&#45;&gt;race -->
<g id="edge6" class="edge">
<title>ack&#45;&gt;race</title>
<path fill="none" stroke="#687e99" stroke-width="1.05" d="M154.25,-321.63C143.2,-312.43 131.88,-303 131.88,-303 131.88,-303 127.74,-291.83 123.46,-280.27"/>
<polygon fill="#687e99" stroke="#687e99" stroke-width="1.05" points="125.8,-279.53 121.07,-273.82 121.21,-281.23 125.8,-279.53"/>
<text xml:space="preserve" text-anchor="middle" x="175.49" y="-294" font-family="DejaVu Sans" font-size="10.00" fill="#485f7a">in&#45;flight response</text>
</g>
<!-- cleanup -->
<g id="node8" class="node">
<title>cleanup</title>
<path fill="#ffffff" stroke="#94a8c2" stroke-width="1.15" d="M239.3,-111C239.3,-111 122.9,-111 122.9,-111 116.9,-111 110.9,-105 110.9,-99 110.9,-99 110.9,-87 110.9,-87 110.9,-81 116.9,-75 122.9,-75 122.9,-75 239.3,-75 239.3,-75 245.3,-75 251.3,-81 251.3,-87 251.3,-87 251.3,-99 251.3,-99 251.3,-105 245.3,-111 239.3,-111"/>
<text xml:space="preserve" text-anchor="middle" x="181.1" y="-89.25" font-family="DejaVu Sans" font-size="12.50" fill="#17304b">Finish local work</text>
</g>
<!-- ack&#45;&gt;cleanup -->
<g id="edge9" class="edge">
<title>ack&#45;&gt;cleanup</title>
<path fill="none" stroke="#687e99" stroke-width="1.05" d="M196.81,-321.63C208.32,-312.43 220.1,-303 220.1,-303 220.1,-303 220.1,-291 220.1,-291 220.1,-291 208.1,-150 208.1,-150 208.1,-150 200.36,-133.94 193.17,-119.02"/>
<polygon fill="#687e99" stroke="#687e99" stroke-width="1.05" points="195.44,-118.08 190.19,-112.84 191.02,-120.21 195.44,-118.08"/>
<text xml:space="preserve" text-anchor="middle" x="244.33" y="-208" font-family="DejaVu Sans" font-size="10.00" fill="#485f7a">no response</text>
</g>
<!-- late -->
<g id="node7" class="node">
<title>late</title>
<path fill="#fff4df" stroke="#bd9651" stroke-width="1.15" d="M184.3,-186C184.3,-186 67.9,-186 67.9,-186 61.9,-186 55.9,-180 55.9,-174 55.9,-174 55.9,-162 55.9,-162 55.9,-156 61.9,-150 67.9,-150 67.9,-150 184.3,-150 184.3,-150 190.3,-150 196.3,-156 196.3,-162 196.3,-162 196.3,-174 196.3,-174 196.3,-180 190.3,-186 184.3,-186"/>
<text xml:space="preserve" text-anchor="middle" x="126.1" y="-164.25" font-family="DejaVu Sans" font-size="12.50" fill="#17304b">LATE_DISCARDED</text>
</g>
<!-- race&#45;&gt;late -->
<g id="edge7" class="edge">
<title>race&#45;&gt;late</title>
<path fill="none" stroke="#687e99" stroke-width="1.05" d="M116.59,-235.6C118.28,-223.77 120.54,-207.93 122.44,-194.66"/>
<polygon fill="#687e99" stroke="#687e99" stroke-width="1.05" points="124.83,-195.23 123.4,-187.96 119.98,-194.54 124.83,-195.23"/>
<text xml:space="preserve" text-anchor="middle" x="161.73" y="-208" font-family="DejaVu Sans" font-size="10.00" fill="#485f7a">guard mismatch</text>
</g>
<!-- late&#45;&gt;cleanup -->
<g id="edge8" class="edge">
<title>late&#45;&gt;cleanup</title>
<path fill="none" stroke="#687e99" stroke-width="1.05" d="M139.14,-149.7C146.21,-140.31 155.07,-128.56 162.82,-118.27"/>
<polygon fill="#687e99" stroke="#687e99" stroke-width="1.05" points="164.76,-119.76 167.02,-112.7 160.85,-116.81 164.76,-119.76"/>
</g>
<!-- cancel -->
<g id="node9" class="node">
<title>cancel</title>
<path fill="#ffffff" stroke="#94a8c2" stroke-width="1.15" d="M239.3,-36C239.3,-36 122.9,-36 122.9,-36 116.9,-36 110.9,-30 110.9,-24 110.9,-24 110.9,-12 110.9,-12 110.9,-6 116.9,0 122.9,0 122.9,0 239.3,0 239.3,0 245.3,0 251.3,-6 251.3,-12 251.3,-12 251.3,-24 251.3,-24 251.3,-30 245.3,-36 239.3,-36"/>
<text xml:space="preserve" text-anchor="middle" x="181.1" y="-14.25" font-family="DejaVu Sans" font-size="12.50" fill="#17304b">CANCELLED</text>
</g>
<!-- cleanup&#45;&gt;cancel -->
<g id="edge10" class="edge">
<title>cleanup&#45;&gt;cancel</title>
<path fill="none" stroke="#687e99" stroke-width="1.05" d="M181.1,-74.7C181.1,-65.76 181.1,-54.68 181.1,-44.76"/>
<polygon fill="#687e99" stroke="#687e99" stroke-width="1.05" points="183.55,-45.02 181.1,-38.02 178.65,-45.02 183.55,-45.02"/>
</g>
</g>
</svg>
